/* XPM */
static char * mossy_cobble_xpm[] = {
"32 32 23 1",
" 	c #5B5B5B",
".	c #585858",
"+	c #07800A",
"@	c #3B3B3B",
"#	c #057D07",
"$	c #3D3D3D",
"%	c #096407",
"&	c #066205",
"*	c #008303",
"=	c #026701",
"-	c #056406",
";	c #008103",
">	c #076609",
",	c #015F03",
"'	c #005E02",
")	c #018103",
"!	c #055B06",
"~	c #008003",
"{	c #075E09",
"]	c #026700",
"^	c #015E03",
"/	c #018003",
"(	c #026400",
" ...+.. @#@@@@@@..@@@@@@...$$$@@",
"@@@@#@@..+%%%............. ..$$$",
"@@@#@@@..+&&&&. ...@@@@.........",
"@@@#@@@. .#&&@@.@@@@@@@@...@@@@@",
"@@@##@@@.@@#@@@.@@@@@@@@..@@@@@@",
"@@@*==@@.@@@###.@@@@@@@@..@@@@@@",
"@@@#==&@.@&&@@#.-@@@@@@@..@@@@@@",
"@@@#===...&&&&;>----@@@@..@@@@@@",
"...+===%..@&&&;,''---@@. ...@@@@",
".@@#@&&&@...@+)>>''->.......    ",
"@@@#@@@@@@@.+..>>>>>.....$$$$$$$",
"@@&@#@@@@@@+@@@@@@@.....@@@@$$$$",
"@&&&&#@@@@@+@@@@@@@@@...!!####@@",
"@&&&&#@@@@ +@@@@@@@@@@..!~!@@##@",
"@&&&&@#@@.{~!@@@@@@@@&&%]!!!@@#@",
"@@&&@@#.{^^~!!@@@@@@&&%%=~!!@@#@",
"@@@@@.+.{{{~!!@@@@@@&%%%./{{..+.",
".....+..^{{/^{{..........!!!!@#@",
"@@@@#@@@{{!!~'((@@@...@@@!!!!#@@",
"@@@==@@@.!'!](((@@@@..@@@@!!!#@@",
"@@&=&&&..@!!]((!@@@@ .@@@@@@#@@@",
"@@#&%%%%. !!~!!!@@.. @@@@@##@@@@",
"  +%%&&&@.{{/{{{.  ...@@@##@@@@@",
"@@+.%&&&@@!{~!{{.@@@@. .##&&&@@@",
"@@# @&&&@@@!/{!!@@@@@@.++.%%%%..",
"@@@+@@@@@@@@/!@@@@@&&@#...%%%%%@",
"@@@ #@@@@@@= @@@@@@&&=#@...@&&@.",
"@@@ @#@@@&&= @@@@@@@@#@@@..@@@@@",
"@@...#@@@&&=.@@@@@@@#@@@...@@@@@",
"...@@+.....#..@@@@@@#...@@@.@@@@",
"@@@@@#@@@@@#@@......+@@@@@@@....",
"@@@@##@@@@@@#@@@@@@@~@@@@@@@@@@@"};
